<?xml version="1.0" standalone="no"?><svg xmlns="http://www.w3.org/2000/svg" viewBox="0 0 1440 320"><path fill="#e7008a" fill-opacity="1" d="M0,64L40,74.7C80,85,160,107,240,106.7C320,107,400,85,480,90.7C560,96,640,128,720,160C800,192,880,224,960,202.7C1040,181,1120,107,1200,90.7C1280,75,1360,117,1400,138.7L1440,160L1440,320L1400,320C1360,320,1280,320,1200,320C1120,320,1040,320,960,320C880,320,800,320,720,320C640,320,560,320,480,320C400,320,320,320,240,320C160,320,80,320,40,320L0,320Z"></path></svg>